#define 19169_83cca4ddbaf4b029af6bb6ff682394e03352960c0ca8a1270371abaa16b5277d-8_width 16
#define 19169_83cca4ddbaf4b029af6bb6ff682394e03352960c0ca8a1270371abaa16b5277d-8_height 16
static char 19169_83cca4ddbaf4b029af6bb6ff682394e03352960c0ca8a1270371abaa16b5277d-8_bits[] = {
  0xFF, 0xFF, 0xFF, 0xFF, 0xFF, 0xFF, 0xF5, 0xAF, 0xFB, 0xDF, 0x31, 0x63, 
  0x19, 0xB3, 0x98, 0x31, 0xCC, 0x19, 0xCF, 0x9C, 0xE3, 0x8E, 0xF9, 0xDF, 
  0xF3, 0x9F, 0xFB, 0xCF, 0xF3, 0x9F, 0xFB, 0xDF, };
